<?xml version="1.0" encoding="utf-8" standalone="no"?>
<!DOCTYPE svg PUBLIC "-//W3C//DTD SVG 1.1//EN"
  "http://www.w3.org/Graphics/SVG/1.1/DTD/svg11.dtd">
<svg height="305.2864pt" version="1.1" viewBox="0 0 397.938036 305.2864" width="397.938036pt" xmlns="http://www.w3.org/2000/svg" xmlns:xlink="http://www.w3.org/1999/xlink">
 <metadata>
  <rdf:RDF xmlns:cc="http://creativecommons.org/ns#" xmlns:dc="http://purl.org/dc/elements/1.1/" xmlns:rdf="http://www.w3.org/1999/02/22-rdf-syntax-ns#">
   <cc:Work>
    <dc:type rdf:resource="http://purl.org/dc/dcmitype/StillImage"/>
    <dc:date>2021-05-10T15:15:41.747861</dc:date>
    <dc:format>image/svg+xml</dc:format>
    <dc:creator>
     <cc:Agent>
      <dc:title>Matplotlib v3.4.2, https://matplotlib.org/</dc:title>
     </cc:Agent>
    </dc:creator>
   </cc:Work>
  </rdf:RDF>
 </metadata>
 <defs>
  <style type="text/css">*{stroke-linecap:butt;stroke-linejoin:round;}</style>
 </defs>
 <g id="figure_1">
  <g id="patch_1">
   <path d="M 0 305.2864 
L 397.938036 305.2864 
L 397.938036 0 
L 0 0 
z
" style="fill:#ffffff;"/>
  </g>
  <g id="axes_1">
   <g id="patch_2">
    <path clip-path="url(#pcc9a13b43e)" d="M 263.929746 260.475697 
L 275.747006 260.475697 
L 269.838376 268.99776 
z
" style="fill:#778899;"/>
   </g>
   <g id="patch_3">
    <path clip-path="url(#pcc9a13b43e)" d="M 354.831746 260.475697 
L 366.649006 260.475697 
L 360.740376 268.99776 
z
" style="fill:#778899;"/>
   </g>
   <g id="line2d_1">
    <path clip-path="url(#pcc9a13b43e)" d="M 63.490836 43.5608 
L 386.192936 43.5608 
" style="fill:none;stroke:#000000;stroke-linecap:square;stroke-width:2;"/>
   </g>
   <g id="line2d_2">
    <path clip-path="url(#pcc9a13b43e)" d="M 63.490836 89.0118 
L 386.192936 89.0118 
" style="fill:none;stroke:#000000;stroke-linecap:square;stroke-width:2;"/>
   </g>
   <g id="line2d_3">
    <path clip-path="url(#pcc9a13b43e)" d="M 63.490836 134.4628 
L 386.192936 134.4628 
" style="fill:none;stroke:#000000;stroke-linecap:square;stroke-width:2;"/>
   </g>
   <g id="line2d_4">
    <path clip-path="url(#pcc9a13b43e)" d="M 63.490836 179.9138 
L 386.192936 179.9138 
" style="fill:none;stroke:#000000;stroke-linecap:square;stroke-width:2;"/>
   </g>
   <g id="line2d_5">
    <path clip-path="url(#pcc9a13b43e)" d="M 63.490836 225.3648 
L 386.192936 225.3648 
" style="fill:none;stroke:#000000;stroke-linecap:square;stroke-width:2;"/>
   </g>
   <g id="line2d_6">
    <path clip-path="url(#pcc9a13b43e)" d="M 63.490836 269.338642 
L 386.192936 269.338642 
" style="fill:none;stroke:#778899;stroke-linecap:square;stroke-width:2;"/>
   </g>
   <g id="line2d_7">
    <path clip-path="url(#pcc9a13b43e)" d="M 63.490836 272.292957 
L 386.192936 272.292957 
" style="fill:none;stroke:#778899;stroke-linecap:square;stroke-width:2;"/>
   </g>
   <g id="line2d_8">
    <path clip-path="url(#pcc9a13b43e)" d="M 133.485376 179.9138 
L 133.485376 89.0118 
" style="fill:none;stroke:#6fa4ff;stroke-linecap:square;stroke-width:2;"/>
   </g>
   <g id="line2d_9">
    <path clip-path="url(#pcc9a13b43e)" d="M 178.936376 134.4628 
L 178.936376 89.0118 
" style="fill:none;stroke:#bb8bff;stroke-linecap:square;stroke-width:2;"/>
   </g>
   <g id="line2d_10">
    <path clip-path="url(#pcc9a13b43e)" d="M 224.387376 134.4628 
L 224.387376 89.0118 
" style="fill:none;stroke:#6fa4ff;stroke-linecap:square;stroke-width:2;"/>
   </g>
   <g id="line2d_11">
    <path clip-path="url(#pcc9a13b43e)" d="M 271.315534 179.9138 
L 271.315534 260.475697 
" style="fill:none;stroke:#778899;stroke-linecap:square;stroke-width:2;"/>
   </g>
   <g id="line2d_12">
    <path clip-path="url(#pcc9a13b43e)" d="M 268.361219 179.9138 
L 268.361219 260.475697 
" style="fill:none;stroke:#778899;stroke-linecap:square;stroke-width:2;"/>
   </g>
   <g id="line2d_13">
    <path clip-path="url(#pcc9a13b43e)" d="M 362.217534 89.0118 
L 362.217534 260.475697 
" style="fill:none;stroke:#778899;stroke-linecap:square;stroke-width:2;"/>
   </g>
   <g id="line2d_14">
    <path clip-path="url(#pcc9a13b43e)" d="M 359.263219 89.0118 
L 359.263219 260.475697 
" style="fill:none;stroke:#778899;stroke-linecap:square;stroke-width:2;"/>
   </g>
   <g id="line2d_15">
    <path clip-path="url(#pcc9a13b43e)" d="M 72.581036 275.3609 
L 77.126136 266.2707 
" style="fill:none;stroke:#778899;stroke-linecap:square;stroke-width:1.5;"/>
   </g>
   <g id="patch_4">
    <path clip-path="url(#pcc9a13b43e)" d="M 73.262801 103.783375 
L 102.805951 103.783375 
L 102.805951 74.240225 
L 73.262801 74.240225 
z
" style="fill:#6fa4ff;stroke:#6fa4ff;stroke-linejoin:miter;stroke-width:1.5;"/>
   </g>
   <g id="patch_5">
    <path clip-path="url(#pcc9a13b43e)" d="M 133.485376 93.443272 
C 134.660616 93.443272 135.78788 92.976345 136.618901 92.145324 
C 137.449921 91.314304 137.916849 90.18704 137.916849 89.0118 
C 137.916849 87.83656 137.449921 86.709296 136.618901 85.878276 
C 135.78788 85.047255 134.660616 84.580327 133.485376 84.580327 
C 132.310136 84.580327 131.182872 85.047255 130.351852 85.878276 
C 129.520832 86.709296 129.053904 87.83656 129.053904 89.0118 
C 129.053904 90.18704 129.520832 91.314304 130.351852 92.145324 
C 131.182872 92.976345 132.310136 93.443272 133.485376 93.443272 
z
" style="fill:#6fa4ff;stroke:#6fa4ff;stroke-linejoin:miter;stroke-width:1.5;"/>
   </g>
   <g id="patch_6">
    <path clip-path="url(#pcc9a13b43e)" d="M 133.485376 190.253902 
C 136.227603 190.253902 138.857885 189.164404 140.796933 187.225357 
C 142.73598 185.286309 143.825479 182.656027 143.825479 179.9138 
C 143.825479 177.171573 142.73598 174.541291 140.796933 172.602243 
C 138.857885 170.663196 136.227603 169.573697 133.485376 169.573697 
C 130.743149 169.573697 128.112867 170.663196 126.17382 172.602243 
C 124.234772 174.541291 123.145274 177.171573 123.145274 179.9138 
C 123.145274 182.656027 124.234772 185.286309 126.17382 187.225357 
C 128.112867 189.164404 130.743149 190.253902 133.485376 190.253902 
z
" style="fill:#6fa4ff;stroke:#6fa4ff;stroke-linejoin:miter;stroke-width:2;"/>
   </g>
   <g id="patch_7">
    <path clip-path="url(#pcc9a13b43e)" d="M 178.936376 93.443272 
C 180.111616 93.443272 181.23888 92.976345 182.069901 92.145324 
C 182.900921 91.314304 183.367849 90.18704 183.367849 89.0118 
C 183.367849 87.83656 182.900921 86.709296 182.069901 85.878276 
C 181.23888 85.047255 180.111616 84.580327 178.936376 84.580327 
C 177.761136 84.580327 176.633872 85.047255 175.802852 85.878276 
C 174.971832 86.709296 174.504904 87.83656 174.504904 89.0118 
C 174.504904 90.18704 174.971832 91.314304 175.802852 92.145324 
C 176.633872 92.976345 177.761136 93.443272 178.936376 93.443272 
z
" style="fill:#bb8bff;stroke:#bb8bff;stroke-linejoin:miter;stroke-width:1.5;"/>
   </g>
   <g id="patch_8">
    <path clip-path="url(#pcc9a13b43e)" d="M 164.164801 149.234375 
L 193.707951 149.234375 
L 193.707951 119.691225 
L 164.164801 119.691225 
z
" style="fill:#bb8bff;stroke:#bb8bff;stroke-linejoin:miter;stroke-width:1.5;"/>
   </g>
   <g id="patch_9">
    <path clip-path="url(#pcc9a13b43e)" d="M 164.164801 194.685375 
L 193.707951 194.685375 
L 193.707951 165.142225 
L 164.164801 165.142225 
z
" style="fill:#6fa4ff;stroke:#6fa4ff;stroke-linejoin:miter;stroke-width:1.5;"/>
   </g>
   <g id="patch_10">
    <path clip-path="url(#pcc9a13b43e)" d="M 224.387376 138.894272 
C 225.562616 138.894272 226.68988 138.427345 227.520901 137.596324 
C 228.351921 136.765304 228.818849 135.63804 228.818849 134.4628 
C 228.818849 133.28756 228.351921 132.160296 227.520901 131.329276 
C 226.68988 130.498255 225.562616 130.031327 224.387376 130.031327 
C 223.212136 130.031327 222.084872 130.498255 221.253852 131.329276 
C 220.422832 132.160296 219.955904 133.28756 219.955904 134.4628 
C 219.955904 135.63804 220.422832 136.765304 221.253852 137.596324 
C 222.084872 138.427345 223.212136 138.894272 224.387376 138.894272 
z
" style="fill:#6fa4ff;stroke:#6fa4ff;stroke-linejoin:miter;stroke-width:1.5;"/>
   </g>
   <g id="patch_11">
    <path clip-path="url(#pcc9a13b43e)" d="M 224.387376 99.351902 
C 227.129603 99.351902 229.759885 98.262404 231.698933 96.323357 
C 233.63798 94.384309 234.727479 91.754027 234.727479 89.0118 
C 234.727479 86.269573 233.63798 83.639291 231.698933 81.700243 
C 229.759885 79.761196 227.129603 78.671697 224.387376 78.671697 
C 221.645149 78.671697 219.014867 79.761196 217.07582 81.700243 
C 215.136772 83.639291 214.047274 86.269573 214.047274 89.0118 
C 214.047274 91.754027 215.136772 94.384309 217.07582 96.323357 
C 219.014867 98.262404 221.645149 99.351902 224.387376 99.351902 
z
" style="fill:#6fa4ff;stroke:#6fa4ff;stroke-linejoin:miter;stroke-width:2;"/>
   </g>
   <g id="patch_12">
    <path clip-path="url(#pcc9a13b43e)" d="M 209.615801 194.685375 
L 239.158951 194.685375 
L 239.158951 165.142225 
L 209.615801 165.142225 
z
" style="fill:#6fa4ff;stroke:#6fa4ff;stroke-linejoin:miter;stroke-width:1.5;"/>
   </g>
   <g id="patch_13">
    <path clip-path="url(#pcc9a13b43e)" d="M 255.066801 103.783375 
L 284.609951 103.783375 
L 284.609951 74.240225 
L 255.066801 74.240225 
z
" style="fill:#6fa4ff;stroke:#6fa4ff;stroke-linejoin:miter;stroke-width:1.5;"/>
   </g>
   <g id="patch_14">
    <path clip-path="url(#pcc9a13b43e)" d="M 255.066801 194.685375 
L 284.609951 194.685375 
L 284.609951 165.142225 
L 255.066801 165.142225 
z
" style="stroke:#000000;stroke-linejoin:miter;stroke-width:1.5;"/>
   </g>
   <g id="patch_15">
    <path clip-path="url(#pcc9a13b43e)" d="M 280.178479 184.345272 
C 280.178479 181.603959 279.088335 178.972118 277.149933 177.033716 
C 275.211531 175.095314 272.57969 174.00517 269.838376 174.00517 
C 267.097062 174.00517 264.465221 175.095314 262.52682 177.033716 
C 260.588418 178.972118 259.498274 181.603959 259.498274 184.345272 
" style="fill:none;stroke:#ffffff;stroke-linejoin:miter;stroke-width:2;"/>
   </g>
   <g id="patch_16">
    <path clip-path="url(#pcc9a13b43e)" d="M 300.517801 103.783375 
L 330.060951 103.783375 
L 330.060951 74.240225 
L 300.517801 74.240225 
z
" style="fill:#6fa4ff;stroke:#6fa4ff;stroke-linejoin:miter;stroke-width:1.5;"/>
   </g>
   <g id="patch_17">
    <path clip-path="url(#pcc9a13b43e)" d="M 345.968801 103.783375 
L 375.511951 103.783375 
L 375.511951 74.240225 
L 345.968801 74.240225 
z
" style="stroke:#000000;stroke-linejoin:miter;stroke-width:1.5;"/>
   </g>
   <g id="patch_18">
    <path clip-path="url(#pcc9a13b43e)" d="M 371.080479 93.443272 
C 371.080479 90.701959 369.990335 88.070118 368.051933 86.131716 
C 366.113531 84.193314 363.48169 83.10317 360.740376 83.10317 
C 357.999062 83.10317 355.367221 84.193314 353.42882 86.131716 
C 351.490418 88.070118 350.400274 90.701959 350.400274 93.443272 
" style="fill:none;stroke:#ffffff;stroke-linejoin:miter;stroke-width:2;"/>
   </g>
   <g id="line2d_16">
    <path clip-path="url(#pcc9a13b43e)" d="M 269.838376 184.345272 
L 280.178479 174.00517 
" style="fill:none;stroke:#ffffff;stroke-linecap:square;stroke-width:2;"/>
   </g>
   <g id="line2d_17">
    <path clip-path="url(#pcc9a13b43e)" d="M 360.740376 93.443272 
L 371.080479 83.10317 
" style="fill:none;stroke:#ffffff;stroke-linecap:square;stroke-width:2;"/>
   </g>
   <g id="line2d_18">
    <path clip-path="url(#pcc9a13b43e)" d="M 133.485376 185.82243 
L 133.485376 174.00517 
" style="fill:none;stroke:#ffffff;stroke-linecap:square;stroke-width:2;"/>
   </g>
   <g id="line2d_19">
    <path clip-path="url(#pcc9a13b43e)" d="M 127.576746 179.9138 
L 139.394006 179.9138 
" style="fill:none;stroke:#ffffff;stroke-linecap:square;stroke-width:2;"/>
   </g>
   <g id="line2d_20">
    <path clip-path="url(#pcc9a13b43e)" d="M 224.387376 94.92043 
L 224.387376 83.10317 
" style="fill:none;stroke:#ffffff;stroke-linecap:square;stroke-width:2;"/>
   </g>
   <g id="line2d_21">
    <path clip-path="url(#pcc9a13b43e)" d="M 218.478746 89.0118 
L 230.296006 89.0118 
" style="fill:none;stroke:#ffffff;stroke-linecap:square;stroke-width:2;"/>
   </g>
   <g id="text_1">
    <g clip-path="url(#pcc9a13b43e)">
     <!-- H -->
     <g transform="translate(83.146173 92.598987)scale(0.13 -0.13)">
      <defs>
       <path d="M 628 4666 
L 1259 4666 
L 1259 2753 
L 3553 2753 
L 3553 4666 
L 4184 4666 
L 4184 0 
L 3553 0 
L 3553 2222 
L 1259 2222 
L 1259 0 
L 628 0 
L 628 4666 
z
" id="DejaVuSans-48" transform="scale(0.015625)"/>
      </defs>
      <use xlink:href="#DejaVuSans-48"/>
     </g>
    </g>
   </g>
   <g id="text_2">
    <g clip-path="url(#pcc9a13b43e)">
     <!-- $\mathrm{U}_3$ -->
     <g transform="translate(171.006376 133.618515)scale(0.13 -0.13)">
      <defs>
       <path d="M 556 4666 
L 1191 4666 
L 1191 1831 
Q 1191 1081 1462 751 
Q 1734 422 2344 422 
Q 2950 422 3222 751 
Q 3494 1081 3494 1831 
L 3494 4666 
L 4128 4666 
L 4128 1753 
Q 4128 841 3676 375 
Q 3225 -91 2344 -91 
Q 1459 -91 1007 375 
Q 556 841 556 1753 
L 556 4666 
z
" id="DejaVuSans-55" transform="scale(0.015625)"/>
       <path d="M 2597 2516 
Q 3050 2419 3304 2112 
Q 3559 1806 3559 1356 
Q 3559 666 3084 287 
Q 2609 -91 1734 -91 
Q 1441 -91 1130 -33 
Q 819 25 488 141 
L 488 750 
Q 750 597 1062 519 
Q 1375 441 1716 441 
Q 2309 441 2620 675 
Q 2931 909 2931 1356 
Q 2931 1769 2642 2001 
Q 2353 2234 1838 2234 
L 1294 2234 
L 1294 2753 
L 1863 2753 
Q 2328 2753 2575 2939 
Q 2822 3125 2822 3475 
Q 2822 3834 2567 4026 
Q 2313 4219 1838 4219 
Q 1578 4219 1281 4162 
Q 984 4106 628 3988 
L 628 4550 
Q 988 4650 1302 4700 
Q 1616 4750 1894 4750 
Q 2613 4750 3031 4423 
Q 3450 4097 3450 3541 
Q 3450 3153 3228 2886 
Q 3006 2619 2597 2516 
z
" id="DejaVuSans-33" transform="scale(0.015625)"/>
      </defs>
      <use transform="translate(0 0.09375)" xlink:href="#DejaVuSans-55"/>
      <use transform="translate(74.150391 -16.3125)scale(0.7)" xlink:href="#DejaVuSans-33"/>
     </g>
    </g>
   </g>
   <g id="text_3">
    <g clip-path="url(#pcc9a13b43e)">
     <!-- 0, 0, 0 -->
     <g transform="translate(166.216376 145.533245)scale(0.08 -0.08)">
      <defs>
       <path d="M 2034 4250 
Q 1547 4250 1301 3770 
Q 1056 3291 1056 2328 
Q 1056 1369 1301 889 
Q 1547 409 2034 409 
Q 2525 409 2770 889 
Q 3016 1369 3016 2328 
Q 3016 3291 2770 3770 
Q 2525 4250 2034 4250 
z
M 2034 4750 
Q 2819 4750 3233 4129 
Q 3647 3509 3647 2328 
Q 3647 1150 3233 529 
Q 2819 -91 2034 -91 
Q 1250 -91 836 529 
Q 422 1150 422 2328 
Q 422 3509 836 4129 
Q 1250 4750 2034 4750 
z
" id="DejaVuSans-30" transform="scale(0.015625)"/>
       <path d="M 750 794 
L 1409 794 
L 1409 256 
L 897 -744 
L 494 -744 
L 750 256 
L 750 794 
z
" id="DejaVuSans-2c" transform="scale(0.015625)"/>
       <path id="DejaVuSans-20" transform="scale(0.015625)"/>
      </defs>
      <use xlink:href="#DejaVuSans-30"/>
      <use x="63.623047" xlink:href="#DejaVuSans-2c"/>
      <use x="95.410156" xlink:href="#DejaVuSans-20"/>
      <use x="127.197266" xlink:href="#DejaVuSans-30"/>
      <use x="190.820312" xlink:href="#DejaVuSans-2c"/>
      <use x="222.607422" xlink:href="#DejaVuSans-20"/>
      <use x="254.394531" xlink:href="#DejaVuSans-30"/>
     </g>
    </g>
   </g>
   <g id="text_4">
    <g clip-path="url(#pcc9a13b43e)">
     <!-- $\mathrm{S}^\dagger$ -->
     <g transform="translate(170.486376 183.500987)scale(0.13 -0.13)">
      <defs>
       <path d="M 3425 4513 
L 3425 3897 
Q 3066 4069 2747 4153 
Q 2428 4238 2131 4238 
Q 1616 4238 1336 4038 
Q 1056 3838 1056 3469 
Q 1056 3159 1242 3001 
Q 1428 2844 1947 2747 
L 2328 2669 
Q 3034 2534 3370 2195 
Q 3706 1856 3706 1288 
Q 3706 609 3251 259 
Q 2797 -91 1919 -91 
Q 1588 -91 1214 -16 
Q 841 59 441 206 
L 441 856 
Q 825 641 1194 531 
Q 1563 422 1919 422 
Q 2459 422 2753 634 
Q 3047 847 3047 1241 
Q 3047 1584 2836 1778 
Q 2625 1972 2144 2069 
L 1759 2144 
Q 1053 2284 737 2584 
Q 422 2884 422 3419 
Q 422 4038 858 4394 
Q 1294 4750 2059 4750 
Q 2388 4750 2728 4690 
Q 3069 4631 3425 4513 
z
" id="DejaVuSans-53" transform="scale(0.015625)"/>
       <path d="M 1325 4666 
L 1875 4666 
L 1875 3353 
L 3022 3353 
L 3022 2875 
L 1875 2875 
L 1875 -616 
L 1325 -616 
L 1325 2875 
L 178 2875 
L 178 3353 
L 1325 3353 
L 1325 4666 
z
" id="DejaVuSans-2020" transform="scale(0.015625)"/>
      </defs>
      <use transform="translate(0 0.684375)" xlink:href="#DejaVuSans-53"/>
      <use transform="translate(78.071289 38.965625)scale(0.7)" xlink:href="#DejaVuSans-2020"/>
     </g>
    </g>
   </g>
   <g id="text_5">
    <g clip-path="url(#pcc9a13b43e)">
     <!-- H -->
     <g transform="translate(219.499173 183.500987)scale(0.13 -0.13)">
      <use xlink:href="#DejaVuSans-48"/>
     </g>
    </g>
   </g>
   <g id="text_6">
    <g clip-path="url(#pcc9a13b43e)">
     <!-- $\mathrm{S}^\dagger$ -->
     <g transform="translate(261.388376 92.598987)scale(0.13 -0.13)">
      <use transform="translate(0 0.684375)" xlink:href="#DejaVuSans-53"/>
      <use transform="translate(78.071289 38.965625)scale(0.7)" xlink:href="#DejaVuSans-2020"/>
     </g>
    </g>
   </g>
   <g id="text_7">
    <g clip-path="url(#pcc9a13b43e)">
     <!-- 1 -->
     <g transform="translate(281.201126 264.107825)scale(0.104 -0.104)">
      <defs>
       <path d="M 794 531 
L 1825 531 
L 1825 4091 
L 703 3866 
L 703 4441 
L 1819 4666 
L 2450 4666 
L 2450 531 
L 3481 531 
L 3481 0 
L 794 0 
L 794 531 
z
" id="DejaVuSans-31" transform="scale(0.015625)"/>
      </defs>
      <use xlink:href="#DejaVuSans-31"/>
     </g>
    </g>
   </g>
   <g id="text_8">
    <g clip-path="url(#pcc9a13b43e)">
     <!-- H -->
     <g transform="translate(310.401173 92.598987)scale(0.13 -0.13)">
      <use xlink:href="#DejaVuSans-48"/>
     </g>
    </g>
   </g>
   <g id="text_9">
    <g clip-path="url(#pcc9a13b43e)">
     <!-- 0 -->
     <g transform="translate(372.103126 264.107825)scale(0.104 -0.104)">
      <use xlink:href="#DejaVuSans-30"/>
     </g>
    </g>
   </g>
   <g id="text_10">
    <g clip-path="url(#pcc9a13b43e)">
     <!-- ${q}_{0}$ -->
     <g transform="translate(36.363136 48.011777)scale(0.1625 -0.1625)">
      <defs>
       <path d="M 2669 525 
Q 2438 222 2123 65 
Q 1809 -91 1428 -91 
Q 897 -91 595 267 
Q 294 625 294 1253 
Q 294 1759 480 2231 
Q 666 2703 1013 3078 
Q 1238 3322 1530 3453 
Q 1822 3584 2144 3584 
Q 2531 3584 2781 3431 
Q 3031 3278 3144 2969 
L 3244 3494 
L 3822 3494 
L 2888 -1319 
L 2309 -1319 
L 2669 525 
z
M 891 1338 
Q 891 875 1084 633 
Q 1278 391 1644 391 
Q 2188 391 2572 911 
Q 2956 1431 2956 2175 
Q 2956 2625 2757 2864 
Q 2559 3103 2188 3103 
Q 1916 3103 1684 2976 
Q 1453 2850 1281 2606 
Q 1100 2350 995 2006 
Q 891 1663 891 1338 
z
" id="DejaVuSans-Oblique-71" transform="scale(0.015625)"/>
      </defs>
      <use xlink:href="#DejaVuSans-Oblique-71"/>
      <use transform="translate(63.476562 -16.40625)scale(0.7)" xlink:href="#DejaVuSans-30"/>
     </g>
    </g>
   </g>
   <g id="text_11">
    <g clip-path="url(#pcc9a13b43e)">
     <!-- ${q}_{1}$ -->
     <g transform="translate(36.363136 93.462777)scale(0.1625 -0.1625)">
      <use xlink:href="#DejaVuSans-Oblique-71"/>
      <use transform="translate(63.476562 -16.40625)scale(0.7)" xlink:href="#DejaVuSans-31"/>
     </g>
    </g>
   </g>
   <g id="text_12">
    <g clip-path="url(#pcc9a13b43e)">
     <!-- ${q}_{2}$ -->
     <g transform="translate(36.363136 138.913777)scale(0.1625 -0.1625)">
      <defs>
       <path d="M 1228 531 
L 3431 531 
L 3431 0 
L 469 0 
L 469 531 
Q 828 903 1448 1529 
Q 2069 2156 2228 2338 
Q 2531 2678 2651 2914 
Q 2772 3150 2772 3378 
Q 2772 3750 2511 3984 
Q 2250 4219 1831 4219 
Q 1534 4219 1204 4116 
Q 875 4013 500 3803 
L 500 4441 
Q 881 4594 1212 4672 
Q 1544 4750 1819 4750 
Q 2544 4750 2975 4387 
Q 3406 4025 3406 3419 
Q 3406 3131 3298 2873 
Q 3191 2616 2906 2266 
Q 2828 2175 2409 1742 
Q 1991 1309 1228 531 
z
" id="DejaVuSans-32" transform="scale(0.015625)"/>
      </defs>
      <use xlink:href="#DejaVuSans-Oblique-71"/>
      <use transform="translate(63.476562 -16.40625)scale(0.7)" xlink:href="#DejaVuSans-32"/>
     </g>
    </g>
   </g>
   <g id="text_13">
    <g clip-path="url(#pcc9a13b43e)">
     <!-- ${q}_{3}$ -->
     <g transform="translate(36.363136 184.364777)scale(0.1625 -0.1625)">
      <use xlink:href="#DejaVuSans-Oblique-71"/>
      <use transform="translate(63.476562 -16.40625)scale(0.7)" xlink:href="#DejaVuSans-33"/>
     </g>
    </g>
   </g>
   <g id="text_14">
    <g clip-path="url(#pcc9a13b43e)">
     <!-- ${q}_{4}$ -->
     <g transform="translate(36.363136 229.815777)scale(0.1625 -0.1625)">
      <defs>
       <path d="M 2419 4116 
L 825 1625 
L 2419 1625 
L 2419 4116 
z
M 2253 4666 
L 3047 4666 
L 3047 1625 
L 3713 1625 
L 3713 1100 
L 3047 1100 
L 3047 0 
L 2419 0 
L 2419 1100 
L 313 1100 
L 313 1709 
L 2253 4666 
z
" id="DejaVuSans-34" transform="scale(0.015625)"/>
      </defs>
      <use xlink:href="#DejaVuSans-Oblique-71"/>
      <use transform="translate(63.476562 -16.40625)scale(0.7)" xlink:href="#DejaVuSans-34"/>
     </g>
    </g>
   </g>
   <g id="text_15">
    <g clip-path="url(#pcc9a13b43e)">
     <!-- 2 -->
     <g transform="translate(68.035936 264.107825)scale(0.104 -0.104)">
      <use xlink:href="#DejaVuSans-32"/>
     </g>
    </g>
   </g>
   <g id="text_16">
    <g clip-path="url(#pcc9a13b43e)">
     <!-- c -->
     <g transform="translate(45.465675 275.299784)scale(0.1625 -0.1625)">
      <defs>
       <path d="M 3122 3366 
L 3122 2828 
Q 2878 2963 2633 3030 
Q 2388 3097 2138 3097 
Q 1578 3097 1268 2742 
Q 959 2388 959 1747 
Q 959 1106 1268 751 
Q 1578 397 2138 397 
Q 2388 397 2633 464 
Q 2878 531 3122 666 
L 3122 134 
Q 2881 22 2623 -34 
Q 2366 -91 2075 -91 
Q 1284 -91 818 406 
Q 353 903 353 1747 
Q 353 2603 823 3093 
Q 1294 3584 2113 3584 
Q 2378 3584 2631 3529 
Q 2884 3475 3122 3366 
z
" id="DejaVuSans-63" transform="scale(0.015625)"/>
      </defs>
      <use xlink:href="#DejaVuSans-63"/>
     </g>
    </g>
   </g>
  </g>
 </g>
 <defs>
  <clipPath id="pcc9a13b43e">
   <rect height="290.8864" width="383.538036" x="7.2" y="7.2"/>
  </clipPath>
 </defs>
</svg>
